<?xml version="1.0" encoding="UTF-8" standalone="no"?>
<svg
   xmlns:dc="http://purl.org/dc/elements/1.1/"
   xmlns:cc="http://creativecommons.org/ns#"
   xmlns:rdf="http://www.w3.org/1999/02/22-rdf-syntax-ns#"
   xmlns:svg="http://www.w3.org/2000/svg"
   xmlns="http://www.w3.org/2000/svg"
   xmlns:sodipodi="http://sodipodi.sourceforge.net/DTD/sodipodi-0.dtd"
   xmlns:inkscape="http://www.inkscape.org/namespaces/inkscape"
   width="2560"
   height="1280"
   viewBox="0 0 677.33332 338.66668"
   version="1.1"
   id="svg8"
   inkscape:version="1.0.2 (e86c870879, 2021-01-15, custom)"
   sodipodi:docname="logo.svg">
  <defs
     id="defs2">
    <inkscape:path-effect
       effect="fill_between_strokes"
       id="path-effect1657"
       is_visible="true"
       lpeversion="1"
       linkedpath=""
       secondpath=""
       reversesecond="false"
       join="true"
       close="true" />
  </defs>
  <sodipodi:namedview
     id="base"
     pagecolor="#ffffff"
     bordercolor="#666666"
     borderopacity="1.0"
     inkscape:pageopacity="0.0"
     inkscape:pageshadow="2"
     inkscape:zoom="0.35355339"
     inkscape:cx="1448.8099"
     inkscape:cy="620.2505"
     inkscape:document-units="mm"
     inkscape:current-layer="layer1"
     inkscape:document-rotation="0"
     showgrid="false"
     units="px"
     inkscape:snap-text-baseline="false"
     inkscape:window-width="1931"
     inkscape:window-height="1081"
     inkscape:window-x="355"
     inkscape:window-y="312"
     inkscape:window-maximized="0" />
  <metadata
     id="metadata5">
    <rdf:RDF>
      <cc:Work
         rdf:about="">
        <dc:format>image/svg+xml</dc:format>
        <dc:type
           rdf:resource="http://purl.org/dc/dcmitype/StillImage" />
        <dc:title></dc:title>
      </cc:Work>
    </rdf:RDF>
  </metadata>
  <g
     inkscape:label="레이어 1"
     inkscape:groupmode="layer"
     id="layer1">
    <g
       id="g1151">
      <g
         id="g284"
         transform="matrix(1.4253777,-0.38893844,0.38192881,1.451538,-278.82361,145.63581)">
        <path
           style="fill:#803300;stroke-width:0.264583"
           d="m 242.95572,135.78767 c -1.14616,-1.00634 -2.52658,-3.84734 -3.26254,-6.71454 -3.46117,-13.48415 -2.49725,-44.37333 2.7288,-87.444789 1.51837,-12.513969 1.803,-14.440898 2.0285,-13.732851 0.1114,0.349787 0.74003,4.981757 1.39696,10.293267 6.25845,50.602213 6.88042,84.397453 1.7459,94.865073 -0.86957,1.77277 -2.48652,3.55993 -3.2209,3.55993 -0.26172,0 -0.89924,-0.37174 -1.41672,-0.82609 z"
           id="path228-5" />
        <path
           style="fill:#552200;stroke-width:0.264583"
           d="m 246.78858,135.94704 c 0,-0.0756 0.30867,-0.62651 0.68593,-1.22412 1.5021,-2.37949 2.61377,-6.49889 3.45927,-12.81865 0.38592,-2.88458 0.45715,-5.69333 0.45897,-18.09885 0.002,-12.77046 -0.0752,-15.68443 -0.59122,-22.35729 -1.22441,-15.832506 -2.56948,-29.352957 -4.28453,-43.067362 -0.57823,-4.623818 -1.04771,-8.671943 -1.04329,-8.995833 0.007,-0.497668 0.0469,-0.52238 0.25889,-0.159546 0.13796,0.236138 1.14146,2.639853 2.23,5.341588 8.79245,21.8226 14.63036,42.182313 16.85658,58.787403 0.49864,3.71924 0.60338,5.71173 0.60501,11.50938 0.002,6.14126 -0.0709,7.3954 -0.58505,10.10503 -1.384,7.29352 -3.70679,12.10875 -7.6516,15.86211 -2.20998,2.10271 -4.07954,3.22041 -7.20856,4.30955 -2.71139,0.94377 -3.1904,1.06487 -3.1904,0.80659 z"
           id="path234-6" />
        <path
           style="fill:#552200;stroke-width:0.264583"
           d="m 238.40781,134.91191 c -7.77098,-2.82229 -11.98459,-8.3293 -14.38713,-18.80336 -0.70055,-3.05413 -0.99253,-13.2042 -0.54247,-18.85775 1.00133,-12.5783 5.66952,-31.374797 12.46703,-50.198501 2.58764,-7.165729 7.10949,-18.506429 7.30218,-18.313733 0.053,0.05305 -0.4343,4.44215 -1.08299,9.753568 -3.60053,29.48075 -4.95808,47.509156 -4.97791,66.107036 -0.0178,16.69831 1.04195,24.97573 3.81935,29.83177 0.97765,1.70934 0.8495,1.73306 -2.59806,0.48097 z"
           id="path236-4" />
        <path
           style="fill:#2b1100;stroke-width:0.264583"
           d="m 256.45174,132.58555 c 6.66263,-5.40117 9.7454,-14.14601 9.72598,-27.5895 -0.0167,-11.52913 -2.30108,-24.63228 -7.219,-41.407293 -2.50623,-8.548716 -7.58345,-22.783389 -11.36396,-31.860381 -1.02533,-2.461805 -1.81766,-4.522584 -1.76073,-4.579506 0.15171,-0.15171 3.99764,4.254717 7.55726,8.658637 14.32354,17.720898 24.32506,35.596192 27.90529,49.873963 1.34483,5.36308 1.59694,7.38197 1.60243,12.83229 0.004,4.00446 -0.10259,5.66279 -0.47633,7.40833 -2.56712,11.9896 -10.51538,20.58924 -24.61119,26.62814 -1.14068,0.48869 -2.15007,0.88853 -2.24309,0.88853 -0.093,0 0.30448,-0.38395 0.88334,-0.85321 z"
           id="path238-6" />
        <path
           style="fill:#2b1100;stroke-width:0.264583"
           d="m 229.59067,131.74258 c -11.93877,-5.40436 -19.62605,-13.55028 -22.33306,-23.66547 -2.54544,-9.51151 -1.05359,-21.10442 4.37746,-34.016314 5.78052,-13.742725 15.75457,-29.142282 28.50142,-44.005116 1.52749,-1.781058 2.81434,-3.201204 2.85967,-3.155881 0.0453,0.04532 -0.85463,2.341211 -1.99989,5.101968 -10.33696,24.918302 -16.90564,48.826303 -18.31039,66.644283 -0.3849,4.88211 -0.1724,12.83301 0.43488,16.27187 1.2854,7.27887 3.96799,12.95288 7.80227,16.50275 0.88452,0.8189 1.51213,1.48235 1.3947,1.47432 -0.11744,-0.008 -1.34461,-0.52661 -2.72706,-1.15241 z"
           id="path240-3" />
      </g>
      <g
         id="g304"
         transform="matrix(2.1202385,0,0,2.2393062,-17.887128,-27.02619)">
        <g
           id="g644">
          <g
             aria-label=" _ _ _         _                   _ 
| (_) |__   __| |___  ___  ___  __| |
| | | '_ \ / _` / __|/ _ \/ _ \/ _` |
| | | |_) | (_| \__ \  __/  __/ (_| |
|_|_|_.__/ \__,_|___/\___|\___|\__,_|"
             id="text288"
             style="font-style:normal;font-weight:normal;font-size:9.87778px;line-height:1.25;font-family:sans-serif;fill:#000000;fill-opacity:1;stroke:none;stroke-width:0.264583">
            <path
               d="m 114.7625,63.03926 h -5.43085 v -0.694531 h 5.43085 z"
               style="font-style:normal;font-variant:normal;font-weight:normal;font-stretch:normal;font-size:9.87778px;font-family:Consolas;-inkscape-font-specification:Consolas;fill:#6c5353;stroke-width:0.264583"
               id="path306" />
            <path
               d="m 125.6242,63.03926 h -5.43085 v -0.694531 h 5.43085 z"
               style="font-style:normal;font-variant:normal;font-weight:normal;font-stretch:normal;font-size:9.87778px;font-family:Consolas;-inkscape-font-specification:Consolas;fill:#6c5353;stroke-width:0.264583"
               id="path308" />
            <path
               d="m 136.4859,63.03926 h -5.43085 v -0.694531 h 5.43085 z"
               style="font-style:normal;font-variant:normal;font-weight:normal;font-stretch:normal;font-size:9.87778px;font-family:Consolas;-inkscape-font-specification:Consolas;fill:#6c5353;stroke-width:0.264583"
               id="path310" />
            <path
               d="m 190.7944,63.03926 h -5.43085 v -0.694531 h 5.43085 z"
               style="font-style:normal;font-variant:normal;font-weight:normal;font-stretch:normal;font-size:9.87778px;font-family:Consolas;-inkscape-font-specification:Consolas;fill:#6c5353;stroke-width:0.264583"
               id="path312" />
            <path
               d="m 299.41138,63.03926 h -5.43085 v -0.694531 h 5.43085 z"
               style="font-style:normal;font-variant:normal;font-weight:normal;font-stretch:normal;font-size:9.87778px;font-family:Consolas;-inkscape-font-specification:Consolas;fill:#6c5353;stroke-width:0.264583"
               id="path314" />
            <path
               d="m 107.01172,75.827573 h -0.79099 v -9.87778 h 0.79099 z"
               style="font-style:normal;font-variant:normal;font-weight:normal;font-stretch:normal;font-size:9.87778px;font-family:Consolas;-inkscape-font-specification:Consolas;fill:#6c5353;stroke-width:0.264583"
               id="path316" />
            <path
               d="m 118.43291,75.875804 q -2.22347,-2.059478 -2.22347,-4.553039 0,-0.583599 0.11576,-1.162375 0.12058,-0.5836 0.38103,-1.167199 0.26527,-0.583599 0.69453,-1.167198 0.43408,-0.5836 1.05144,-1.157553 l 0.48714,0.496783 q -1.87138,1.847261 -1.87138,4.094841 0,1.118968 0.47267,2.151119 0.47266,1.03215 1.39871,1.948546 z"
               style="font-style:normal;font-variant:normal;font-weight:normal;font-stretch:normal;font-size:9.87778px;font-family:Consolas;-inkscape-font-specification:Consolas;fill:#6c5353;stroke-width:0.264583"
               id="path318" />
            <path
               d="m 125.6242,75.827573 h -5.43085 v -0.694531 h 5.43085 z"
               style="font-style:normal;font-variant:normal;font-weight:normal;font-stretch:normal;font-size:9.87778px;font-family:Consolas;-inkscape-font-specification:Consolas;fill:#6c5353;stroke-width:0.264583"
               id="path320" />
            <path
               d="m 127.38465,66.66844 q 2.22346,2.059479 2.22346,4.581978 0,0.520899 -0.10611,1.080382 -0.10611,0.559484 -0.36173,1.147906 -0.25563,0.5836 -0.68971,1.186492 -0.42926,0.602891 -1.08521,1.210606 l -0.48713,-0.496782 q 0.94051,-0.930865 1.40353,-1.943724 0.46302,-1.012858 0.46302,-2.122179 0,-2.295812 -1.86655,-4.128603 z"
               style="font-style:normal;font-variant:normal;font-weight:normal;font-stretch:normal;font-size:9.87778px;font-family:Consolas;-inkscape-font-specification:Consolas;fill:#6c5353;stroke-width:0.264583"
               id="path322" />
            <path
               d="m 139.59682,75.827573 h -0.79099 v -9.87778 h 0.79099 z"
               style="font-style:normal;font-variant:normal;font-weight:normal;font-stretch:normal;font-size:9.87778px;font-family:Consolas;-inkscape-font-specification:Consolas;fill:#6c5353;stroke-width:0.264583"
               id="path324" />
            <path
               d="m 147.3476,75.827573 h -5.43085 v -0.694531 h 5.43085 z"
               style="font-style:normal;font-variant:normal;font-weight:normal;font-stretch:normal;font-size:9.87778px;font-family:Consolas;-inkscape-font-specification:Consolas;fill:#6c5353;stroke-width:0.264583"
               id="path326" />
            <path
               d="m 152.77845,75.827573 h -5.43085 v -0.694531 h 5.43085 z"
               style="font-style:normal;font-variant:normal;font-weight:normal;font-stretch:normal;font-size:9.87778px;font-family:Consolas;-inkscape-font-specification:Consolas;fill:#6c5353;stroke-width:0.264583"
               id="path328" />
            <path
               d="M 174.50185,75.827573 H 169.071 v -0.694531 h 5.43085 z"
               style="font-style:normal;font-variant:normal;font-weight:normal;font-stretch:normal;font-size:9.87778px;font-family:Consolas;-inkscape-font-specification:Consolas;fill:#6c5353;stroke-width:0.264583"
               id="path330" />
            <path
               d="m 179.9327,75.827573 h -5.43085 v -0.694531 h 5.43085 z"
               style="font-style:normal;font-variant:normal;font-weight:normal;font-stretch:normal;font-size:9.87778px;font-family:Consolas;-inkscape-font-specification:Consolas;fill:#6c5353;stroke-width:0.264583"
               id="path332" />
            <path
               d="m 183.04362,75.827573 h -0.791 v -9.87778 h 0.791 z"
               style="font-style:normal;font-variant:normal;font-weight:normal;font-stretch:normal;font-size:9.87778px;font-family:Consolas;-inkscape-font-specification:Consolas;fill:#6c5353;stroke-width:0.264583"
               id="path334" />
            <path
               d="m 193.90532,75.827573 h -0.791 v -9.87778 h 0.791 z"
               style="font-style:normal;font-variant:normal;font-weight:normal;font-stretch:normal;font-size:9.87778px;font-family:Consolas;-inkscape-font-specification:Consolas;fill:#6c5353;stroke-width:0.264583"
               id="path336" />
            <path
               d="m 201.65609,75.827573 h -5.43085 v -0.694531 h 5.43085 z"
               style="font-style:normal;font-variant:normal;font-weight:normal;font-stretch:normal;font-size:9.87778px;font-family:Consolas;-inkscape-font-specification:Consolas;fill:#6c5353;stroke-width:0.264583"
               id="path338" />
            <path
               d="m 207.08695,75.827573 h -5.43085 v -0.694531 h 5.43085 z"
               style="font-style:normal;font-variant:normal;font-weight:normal;font-stretch:normal;font-size:9.87778px;font-family:Consolas;-inkscape-font-specification:Consolas;fill:#6c5353;stroke-width:0.264583"
               id="path340" />
            <path
               d="m 212.51779,75.827573 h -5.43085 v -0.694531 h 5.43085 z"
               style="font-style:normal;font-variant:normal;font-weight:normal;font-stretch:normal;font-size:9.87778px;font-family:Consolas;-inkscape-font-specification:Consolas;fill:#6c5353;stroke-width:0.264583"
               id="path342" />
            <path
               d="m 228.81034,75.827573 h -5.43085 v -0.694531 h 5.43085 z"
               style="font-style:normal;font-variant:normal;font-weight:normal;font-stretch:normal;font-size:9.87778px;font-family:Consolas;-inkscape-font-specification:Consolas;fill:#6c5353;stroke-width:0.264583"
               id="path344" />
            <path
               d="m 234.24119,75.827573 h -5.43085 v -0.694531 h 5.43085 z"
               style="font-style:normal;font-variant:normal;font-weight:normal;font-stretch:normal;font-size:9.87778px;font-family:Consolas;-inkscape-font-specification:Consolas;fill:#6c5353;stroke-width:0.264583"
               id="path346" />
            <path
               d="m 239.67205,75.827573 h -5.43085 v -0.694531 h 5.43085 z"
               style="font-style:normal;font-variant:normal;font-weight:normal;font-stretch:normal;font-size:9.87778px;font-family:Consolas;-inkscape-font-specification:Consolas;fill:#6c5353;stroke-width:0.264583"
               id="path348" />
            <path
               d="m 255.96459,75.827573 h -5.43085 v -0.694531 h 5.43085 z"
               style="font-style:normal;font-variant:normal;font-weight:normal;font-stretch:normal;font-size:9.87778px;font-family:Consolas;-inkscape-font-specification:Consolas;fill:#6c5353;stroke-width:0.264583"
               id="path350" />
            <path
               d="m 261.39543,75.827573 h -5.43085 v -0.694531 h 5.43085 z"
               style="font-style:normal;font-variant:normal;font-weight:normal;font-stretch:normal;font-size:9.87778px;font-family:Consolas;-inkscape-font-specification:Consolas;fill:#6c5353;stroke-width:0.264583"
               id="path352" />
            <path
               d="m 266.8263,75.827573 h -5.43085 v -0.694531 h 5.43085 z"
               style="font-style:normal;font-variant:normal;font-weight:normal;font-stretch:normal;font-size:9.87778px;font-family:Consolas;-inkscape-font-specification:Consolas;fill:#6c5353;stroke-width:0.264583"
               id="path354" />
            <path
               d="m 283.11884,75.827573 h -5.43085 v -0.694531 h 5.43085 z"
               style="font-style:normal;font-variant:normal;font-weight:normal;font-stretch:normal;font-size:9.87778px;font-family:Consolas;-inkscape-font-specification:Consolas;fill:#6c5353;stroke-width:0.264583"
               id="path356" />
            <path
               d="m 288.54969,75.827573 h -5.43085 v -0.694531 h 5.43085 z"
               style="font-style:normal;font-variant:normal;font-weight:normal;font-stretch:normal;font-size:9.87778px;font-family:Consolas;-inkscape-font-specification:Consolas;fill:#6c5353;stroke-width:0.264583"
               id="path358" />
            <path
               d="m 291.6606,75.827573 h -0.79099 v -9.87778 h 0.79099 z"
               style="font-style:normal;font-variant:normal;font-weight:normal;font-stretch:normal;font-size:9.87778px;font-family:Consolas;-inkscape-font-specification:Consolas;fill:#6c5353;stroke-width:0.264583"
               id="path360" />
            <path
               d="m 302.52231,75.827573 h -0.79099 v -9.87778 h 0.79099 z"
               style="font-style:normal;font-variant:normal;font-weight:normal;font-stretch:normal;font-size:9.87778px;font-family:Consolas;-inkscape-font-specification:Consolas;fill:#6c5353;stroke-width:0.264583"
               id="path362" />
            <path
               d="m 107.01172,88.615886 h -0.79099 v -9.87778 h 0.79099 z"
               style="font-style:normal;font-variant:normal;font-weight:normal;font-stretch:normal;font-size:9.87778px;font-family:Consolas;-inkscape-font-specification:Consolas;fill:#6c5353;stroke-width:0.264583"
               id="path364" />
            <path
               d="m 117.87342,88.615886 h -0.79099 v -9.87778 h 0.79099 z"
               style="font-style:normal;font-variant:normal;font-weight:normal;font-stretch:normal;font-size:9.87778px;font-family:Consolas;-inkscape-font-specification:Consolas;fill:#6c5353;stroke-width:0.264583"
               id="path366" />
            <path
               d="m 128.73512,88.615886 h -0.79099 v -9.87778 h 0.79099 z"
               style="font-style:normal;font-variant:normal;font-weight:normal;font-stretch:normal;font-size:9.87778px;font-family:Consolas;-inkscape-font-specification:Consolas;fill:#6c5353;stroke-width:0.264583"
               id="path368" />
            <path
               d="m 139.75599,79.823311 -0.13987,2.26205 h -0.82958 l -0.13505,-2.26205 z"
               style="font-style:normal;font-variant:normal;font-weight:normal;font-stretch:normal;font-size:9.87778px;font-family:Consolas;-inkscape-font-specification:Consolas;fill:#6c5353;stroke-width:0.264583"
               id="path370" />
            <path
               d="m 147.3476,88.615886 h -5.43085 v -0.694532 h 5.43085 z"
               style="font-style:normal;font-variant:normal;font-weight:normal;font-stretch:normal;font-size:9.87778px;font-family:Consolas;-inkscape-font-specification:Consolas;fill:#6c5353;stroke-width:0.264583"
               id="path372" />
            <path
               d="m 157.65946,87.675374 h -0.80064 l -3.30867,-7.852063 h 0.80064 z"
               style="font-style:normal;font-variant:normal;font-weight:normal;font-stretch:normal;font-size:9.87778px;font-family:Consolas;-inkscape-font-specification:Consolas;fill:#6c5353;stroke-width:0.264583"
               id="path374" />
            <path
               d="m 168.30412,79.823311 -3.30867,7.852063 h -0.80064 l 3.30867,-7.852063 z"
               style="font-style:normal;font-variant:normal;font-weight:normal;font-stretch:normal;font-size:9.87778px;font-family:Consolas;-inkscape-font-specification:Consolas;fill:#6c5353;stroke-width:0.264583"
               id="path376" />
            <path
               d="m 179.9327,88.615886 h -5.43085 v -0.694532 h 5.43085 z"
               style="font-style:normal;font-variant:normal;font-weight:normal;font-stretch:normal;font-size:9.87778px;font-family:Consolas;-inkscape-font-specification:Consolas;fill:#6c5353;stroke-width:0.264583"
               id="path378" />
            <path
               d="m 183.15455,80.99051 h -0.83923 l -1.5434,-1.167199 h 1.21543 z m -3.22186,0.805463 z"
               style="font-style:normal;font-variant:normal;font-weight:normal;font-stretch:normal;font-size:9.87778px;font-family:Consolas;-inkscape-font-specification:Consolas;fill:#6c5353;stroke-width:0.264583"
               id="path380" />
            <path
               d="m 195.45837,79.823311 -3.30867,7.852063 h -0.80064 l 3.30867,-7.852063 z"
               style="font-style:normal;font-variant:normal;font-weight:normal;font-stretch:normal;font-size:9.87778px;font-family:Consolas;-inkscape-font-specification:Consolas;fill:#6c5353;stroke-width:0.264583"
               id="path382" />
            <path
               d="m 207.08695,88.615886 h -5.43085 v -0.694532 h 5.43085 z"
               style="font-style:normal;font-variant:normal;font-weight:normal;font-stretch:normal;font-size:9.87778px;font-family:Consolas;-inkscape-font-specification:Consolas;fill:#6c5353;stroke-width:0.264583"
               id="path384" />
            <path
               d="m 212.51779,88.615886 h -5.43085 v -0.694532 h 5.43085 z"
               style="font-style:normal;font-variant:normal;font-weight:normal;font-stretch:normal;font-size:9.87778px;font-family:Consolas;-inkscape-font-specification:Consolas;fill:#6c5353;stroke-width:0.264583"
               id="path386" />
            <path
               d="m 215.62871,88.615886 h -0.79099 v -9.87778 h 0.79099 z"
               style="font-style:normal;font-variant:normal;font-weight:normal;font-stretch:normal;font-size:9.87778px;font-family:Consolas;-inkscape-font-specification:Consolas;fill:#6c5353;stroke-width:0.264583"
               id="path388" />
            <path
               d="m 222.61262,79.823311 -3.30867,7.852063 h -0.80064 l 3.30867,-7.852063 z"
               style="font-style:normal;font-variant:normal;font-weight:normal;font-stretch:normal;font-size:9.87778px;font-family:Consolas;-inkscape-font-specification:Consolas;fill:#6c5353;stroke-width:0.264583"
               id="path390" />
            <path
               d="m 234.24119,88.615886 h -5.43085 v -0.694532 h 5.43085 z"
               style="font-style:normal;font-variant:normal;font-weight:normal;font-stretch:normal;font-size:9.87778px;font-family:Consolas;-inkscape-font-specification:Consolas;fill:#6c5353;stroke-width:0.264583"
               id="path392" />
            <path
               d="m 244.55306,87.675374 h -0.80065 l -3.30867,-7.852063 h 0.80064 z"
               style="font-style:normal;font-variant:normal;font-weight:normal;font-stretch:normal;font-size:9.87778px;font-family:Consolas;-inkscape-font-specification:Consolas;fill:#6c5353;stroke-width:0.264583"
               id="path394" />
            <path
               d="m 249.76686,79.823311 -3.30867,7.852063 h -0.80064 l 3.30867,-7.852063 z"
               style="font-style:normal;font-variant:normal;font-weight:normal;font-stretch:normal;font-size:9.87778px;font-family:Consolas;-inkscape-font-specification:Consolas;fill:#6c5353;stroke-width:0.264583"
               id="path396" />
            <path
               d="m 261.39543,88.615886 h -5.43085 v -0.694532 h 5.43085 z"
               style="font-style:normal;font-variant:normal;font-weight:normal;font-stretch:normal;font-size:9.87778px;font-family:Consolas;-inkscape-font-specification:Consolas;fill:#6c5353;stroke-width:0.264583"
               id="path398" />
            <path
               d="m 271.70731,87.675374 h -0.80064 L 267.598,79.823311 h 0.80064 z"
               style="font-style:normal;font-variant:normal;font-weight:normal;font-stretch:normal;font-size:9.87778px;font-family:Consolas;-inkscape-font-specification:Consolas;fill:#6c5353;stroke-width:0.264583"
               id="path400" />
            <path
               d="m 276.92111,79.823311 -3.30867,7.852063 h -0.80064 l 3.30867,-7.852063 z"
               style="font-style:normal;font-variant:normal;font-weight:normal;font-stretch:normal;font-size:9.87778px;font-family:Consolas;-inkscape-font-specification:Consolas;fill:#6c5353;stroke-width:0.264583"
               id="path402" />
            <path
               d="m 288.54969,88.615886 h -5.43085 v -0.694532 h 5.43085 z"
               style="font-style:normal;font-variant:normal;font-weight:normal;font-stretch:normal;font-size:9.87778px;font-family:Consolas;-inkscape-font-specification:Consolas;fill:#6c5353;stroke-width:0.264583"
               id="path404" />
            <path
               d="m 291.77154,80.99051 h -0.83923 l -1.5434,-1.167199 h 1.21543 z m -3.22186,0.805463 z"
               style="font-style:normal;font-variant:normal;font-weight:normal;font-stretch:normal;font-size:9.87778px;font-family:Consolas;-inkscape-font-specification:Consolas;fill:#6c5353;stroke-width:0.264583"
               id="path406" />
            <path
               d="m 302.52231,88.615886 h -0.79099 v -9.87778 h 0.79099 z"
               style="font-style:normal;font-variant:normal;font-weight:normal;font-stretch:normal;font-size:9.87778px;font-family:Consolas;-inkscape-font-specification:Consolas;fill:#6c5353;stroke-width:0.264583"
               id="path408" />
            <path
               d="m 107.01172,101.4042 h -0.79099 v -9.877782 h 0.79099 z"
               style="font-style:normal;font-variant:normal;font-weight:normal;font-stretch:normal;font-size:9.87778px;font-family:Consolas;-inkscape-font-specification:Consolas;fill:#6c5353;stroke-width:0.264583"
               id="path410" />
            <path
               d="m 117.87342,101.4042 h -0.79099 v -9.877782 h 0.79099 z"
               style="font-style:normal;font-variant:normal;font-weight:normal;font-stretch:normal;font-size:9.87778px;font-family:Consolas;-inkscape-font-specification:Consolas;fill:#6c5353;stroke-width:0.264583"
               id="path412" />
            <path
               d="m 128.73512,101.4042 h -0.79099 v -9.877782 h 0.79099 z"
               style="font-style:normal;font-variant:normal;font-weight:normal;font-stretch:normal;font-size:9.87778px;font-family:Consolas;-inkscape-font-specification:Consolas;fill:#6c5353;stroke-width:0.264583"
               id="path414" />
            <path
               d="m 139.59682,101.4042 h -0.79099 v -9.877782 h 0.79099 z"
               style="font-style:normal;font-variant:normal;font-weight:normal;font-stretch:normal;font-size:9.87778px;font-family:Consolas;-inkscape-font-specification:Consolas;fill:#6c5353;stroke-width:0.264583"
               id="path416" />
            <path
               d="m 147.3476,101.4042 h -5.43085 v -0.69453 h 5.43085 z"
               style="font-style:normal;font-variant:normal;font-weight:normal;font-stretch:normal;font-size:9.87778px;font-family:Consolas;-inkscape-font-specification:Consolas;fill:#6c5353;stroke-width:0.264583"
               id="path418" />
            <path
               d="m 149.10804,92.245065 q 2.22347,2.059479 2.22347,4.581978 0,0.520899 -0.10611,1.080383 -0.10611,0.559483 -0.36174,1.147906 -0.25562,0.583599 -0.6897,1.186488 -0.42926,0.60289 -1.08521,1.21061 l -0.48714,-0.49678 q 0.94052,-0.93087 1.40354,-1.943727 0.46302,-1.012858 0.46302,-2.122179 0,-2.295812 -1.86656,-4.128603 z"
               style="font-style:normal;font-variant:normal;font-weight:normal;font-stretch:normal;font-size:9.87778px;font-family:Consolas;-inkscape-font-specification:Consolas;fill:#6c5353;stroke-width:0.264583"
               id="path420" />
            <path
               d="m 161.32022,101.4042 h -0.791 v -9.877782 h 0.791 z"
               style="font-style:normal;font-variant:normal;font-weight:normal;font-stretch:normal;font-size:9.87778px;font-family:Consolas;-inkscape-font-specification:Consolas;fill:#6c5353;stroke-width:0.264583"
               id="path422" />
            <path
               d="m 172.7414,101.45243 q -2.22346,-2.059479 -2.22346,-4.55304 0,-0.583599 0.11575,-1.162375 0.12058,-0.583599 0.38103,-1.167199 0.26527,-0.583599 0.69453,-1.167198 0.43409,-0.5836 1.05145,-1.157553 l 0.48713,0.496783 q -1.87137,1.847261 -1.87137,4.094842 0,1.118967 0.47266,2.151118 0.47267,1.032152 1.39871,1.948542 z"
               style="font-style:normal;font-variant:normal;font-weight:normal;font-stretch:normal;font-size:9.87778px;font-family:Consolas;-inkscape-font-specification:Consolas;fill:#6c5353;stroke-width:0.264583"
               id="path424" />
            <path
               d="m 179.9327,101.4042 h -5.43085 v -0.69453 h 5.43085 z"
               style="font-style:normal;font-variant:normal;font-weight:normal;font-stretch:normal;font-size:9.87778px;font-family:Consolas;-inkscape-font-specification:Consolas;fill:#6c5353;stroke-width:0.264583"
               id="path426" />
            <path
               d="m 183.04362,101.4042 h -0.791 v -9.877782 h 0.791 z"
               style="font-style:normal;font-variant:normal;font-weight:normal;font-stretch:normal;font-size:9.87778px;font-family:Consolas;-inkscape-font-specification:Consolas;fill:#6c5353;stroke-width:0.264583"
               id="path428" />
            <path
               d="m 195.67541,100.46369 h -0.80064 l -3.30867,-7.852066 h 0.80064 z"
               style="font-style:normal;font-variant:normal;font-weight:normal;font-stretch:normal;font-size:9.87778px;font-family:Consolas;-inkscape-font-specification:Consolas;fill:#6c5353;stroke-width:0.264583"
               id="path430" />
            <path
               d="m 201.65609,101.4042 h -5.43085 v -0.69453 h 5.43085 z"
               style="font-style:normal;font-variant:normal;font-weight:normal;font-stretch:normal;font-size:9.87778px;font-family:Consolas;-inkscape-font-specification:Consolas;fill:#6c5353;stroke-width:0.264583"
               id="path432" />
            <path
               d="m 207.08695,101.4042 h -5.43085 v -0.69453 h 5.43085 z"
               style="font-style:normal;font-variant:normal;font-weight:normal;font-stretch:normal;font-size:9.87778px;font-family:Consolas;-inkscape-font-specification:Consolas;fill:#6c5353;stroke-width:0.264583"
               id="path434" />
            <path
               d="m 217.3988,100.46369 h -0.80064 l -3.30867,-7.852066 h 0.80064 z"
               style="font-style:normal;font-variant:normal;font-weight:normal;font-stretch:normal;font-size:9.87778px;font-family:Consolas;-inkscape-font-specification:Consolas;fill:#6c5353;stroke-width:0.264583"
               id="path436" />
            <path
               d="m 234.24119,101.4042 h -5.43085 v -0.69453 h 5.43085 z"
               style="font-style:normal;font-variant:normal;font-weight:normal;font-stretch:normal;font-size:9.87778px;font-family:Consolas;-inkscape-font-specification:Consolas;fill:#6c5353;stroke-width:0.264583"
               id="path438" />
            <path
               d="m 239.67205,101.4042 h -5.43085 v -0.69453 h 5.43085 z"
               style="font-style:normal;font-variant:normal;font-weight:normal;font-stretch:normal;font-size:9.87778px;font-family:Consolas;-inkscape-font-specification:Consolas;fill:#6c5353;stroke-width:0.264583"
               id="path440" />
            <path
               d="m 244.33601,92.611624 -3.30867,7.852066 h -0.80064 l 3.30867,-7.852066 z"
               style="font-style:normal;font-variant:normal;font-weight:normal;font-stretch:normal;font-size:9.87778px;font-family:Consolas;-inkscape-font-specification:Consolas;fill:#6c5353;stroke-width:0.264583"
               id="path442" />
            <path
               d="m 261.39543,101.4042 h -5.43085 v -0.69453 h 5.43085 z"
               style="font-style:normal;font-variant:normal;font-weight:normal;font-stretch:normal;font-size:9.87778px;font-family:Consolas;-inkscape-font-specification:Consolas;fill:#6c5353;stroke-width:0.264583"
               id="path444" />
            <path
               d="m 266.8263,101.4042 h -5.43085 v -0.69453 h 5.43085 z"
               style="font-style:normal;font-variant:normal;font-weight:normal;font-stretch:normal;font-size:9.87778px;font-family:Consolas;-inkscape-font-specification:Consolas;fill:#6c5353;stroke-width:0.264583"
               id="path446" />
            <path
               d="m 271.49027,92.611624 -3.30868,7.852066 h -0.80064 l 3.30867,-7.852066 z"
               style="font-style:normal;font-variant:normal;font-weight:normal;font-stretch:normal;font-size:9.87778px;font-family:Consolas;-inkscape-font-specification:Consolas;fill:#6c5353;stroke-width:0.264583"
               id="path448" />
            <path
               d="m 281.35839,101.45243 q -2.22346,-2.059479 -2.22346,-4.55304 0,-0.583599 0.11575,-1.162375 0.12058,-0.583599 0.38103,-1.167199 0.26527,-0.583599 0.69453,-1.167198 0.43409,-0.5836 1.05145,-1.157553 l 0.48713,0.496783 q -1.87137,1.847261 -1.87137,4.094842 0,1.118967 0.47266,2.151118 0.47267,1.032152 1.39871,1.948542 z"
               style="font-style:normal;font-variant:normal;font-weight:normal;font-stretch:normal;font-size:9.87778px;font-family:Consolas;-inkscape-font-specification:Consolas;fill:#6c5353;stroke-width:0.264583"
               id="path450" />
            <path
               d="m 288.54969,101.4042 h -5.43085 v -0.69453 h 5.43085 z"
               style="font-style:normal;font-variant:normal;font-weight:normal;font-stretch:normal;font-size:9.87778px;font-family:Consolas;-inkscape-font-specification:Consolas;fill:#6c5353;stroke-width:0.264583"
               id="path452" />
            <path
               d="m 291.6606,101.4042 h -0.79099 v -9.877782 h 0.79099 z"
               style="font-style:normal;font-variant:normal;font-weight:normal;font-stretch:normal;font-size:9.87778px;font-family:Consolas;-inkscape-font-specification:Consolas;fill:#6c5353;stroke-width:0.264583"
               id="path454" />
            <path
               d="m 302.52231,101.4042 h -0.79099 v -9.877782 h 0.79099 z"
               style="font-style:normal;font-variant:normal;font-weight:normal;font-stretch:normal;font-size:9.87778px;font-family:Consolas;-inkscape-font-specification:Consolas;fill:#6c5353;stroke-width:0.264583"
               id="path456" />
            <path
               d="m 107.01172,114.19251 h -0.79099 v -9.87778 h 0.79099 z"
               style="font-style:normal;font-variant:normal;font-weight:normal;font-stretch:normal;font-size:9.87778px;font-family:Consolas;-inkscape-font-specification:Consolas;fill:#6c5353;stroke-width:0.264583"
               id="path458" />
            <path
               d="m 114.7625,114.19251 h -5.43085 v -0.69453 h 5.43085 z"
               style="font-style:normal;font-variant:normal;font-weight:normal;font-stretch:normal;font-size:9.87778px;font-family:Consolas;-inkscape-font-specification:Consolas;fill:#6c5353;stroke-width:0.264583"
               id="path460" />
            <path
               d="m 117.87342,114.19251 h -0.79099 v -9.87778 h 0.79099 z"
               style="font-style:normal;font-variant:normal;font-weight:normal;font-stretch:normal;font-size:9.87778px;font-family:Consolas;-inkscape-font-specification:Consolas;fill:#6c5353;stroke-width:0.264583"
               id="path462" />
            <path
               d="m 125.6242,114.19251 h -5.43085 v -0.69453 h 5.43085 z"
               style="font-style:normal;font-variant:normal;font-weight:normal;font-stretch:normal;font-size:9.87778px;font-family:Consolas;-inkscape-font-specification:Consolas;fill:#6c5353;stroke-width:0.264583"
               id="path464" />
            <path
               d="m 128.73512,114.19251 h -0.79099 v -9.87778 h 0.79099 z"
               style="font-style:normal;font-variant:normal;font-weight:normal;font-stretch:normal;font-size:9.87778px;font-family:Consolas;-inkscape-font-specification:Consolas;fill:#6c5353;stroke-width:0.264583"
               id="path466" />
            <path
               d="m 136.4859,114.19251 h -5.43085 v -0.69453 h 5.43085 z"
               style="font-style:normal;font-variant:normal;font-weight:normal;font-stretch:normal;font-size:9.87778px;font-family:Consolas;-inkscape-font-specification:Consolas;fill:#6c5353;stroke-width:0.264583"
               id="path468" />
            <path
               d="m 139.16274,110.69574 q 0.16399,0 0.30868,0.0627 0.14952,0.0627 0.25563,0.17363 0.11093,0.11093 0.17363,0.26045 0.0627,0.1447 0.0627,0.3135 0,0.16399 -0.0627,0.30869 -0.0627,0.14469 -0.17363,0.25562 -0.10611,0.10611 -0.25563,0.16881 -0.14469,0.0627 -0.30868,0.0627 -0.16881,0 -0.3135,-0.0627 -0.1447,-0.0627 -0.25563,-0.16881 -0.10611,-0.11093 -0.16881,-0.25562 -0.0627,-0.1447 -0.0627,-0.30869 0,-0.1688 0.0627,-0.3135 0.0627,-0.14952 0.16881,-0.26045 0.11093,-0.11093 0.25563,-0.17363 0.14469,-0.0627 0.3135,-0.0627 z"
               style="font-style:normal;font-variant:normal;font-weight:normal;font-stretch:normal;font-size:9.87778px;font-family:Consolas;-inkscape-font-specification:Consolas;fill:#6c5353;stroke-width:0.264583"
               id="path470" />
            <path
               d="m 147.3476,114.19251 h -5.43085 v -0.69453 h 5.43085 z"
               style="font-style:normal;font-variant:normal;font-weight:normal;font-stretch:normal;font-size:9.87778px;font-family:Consolas;-inkscape-font-specification:Consolas;fill:#6c5353;stroke-width:0.264583"
               id="path472" />
            <path
               d="m 152.77845,114.19251 h -5.43085 v -0.69453 h 5.43085 z"
               style="font-style:normal;font-variant:normal;font-weight:normal;font-stretch:normal;font-size:9.87778px;font-family:Consolas;-inkscape-font-specification:Consolas;fill:#6c5353;stroke-width:0.264583"
               id="path474" />
            <path
               d="m 157.44242,105.39994 -3.30867,7.85206 h -0.80064 l 3.30867,-7.85206 z"
               style="font-style:normal;font-variant:normal;font-weight:normal;font-stretch:normal;font-size:9.87778px;font-family:Consolas;-inkscape-font-specification:Consolas;fill:#6c5353;stroke-width:0.264583"
               id="path476" />
            <path
               d="m 168.52116,113.252 h -0.80064 l -3.30867,-7.85206 h 0.80064 z"
               style="font-style:normal;font-variant:normal;font-weight:normal;font-stretch:normal;font-size:9.87778px;font-family:Consolas;-inkscape-font-specification:Consolas;fill:#6c5353;stroke-width:0.264583"
               id="path478" />
            <path
               d="M 174.50185,114.19251 H 169.071 v -0.69453 h 5.43085 z"
               style="font-style:normal;font-variant:normal;font-weight:normal;font-stretch:normal;font-size:9.87778px;font-family:Consolas;-inkscape-font-specification:Consolas;fill:#6c5353;stroke-width:0.264583"
               id="path480" />
            <path
               d="m 179.9327,114.19251 h -5.43085 v -0.69453 h 5.43085 z"
               style="font-style:normal;font-variant:normal;font-weight:normal;font-stretch:normal;font-size:9.87778px;font-family:Consolas;-inkscape-font-specification:Consolas;fill:#6c5353;stroke-width:0.264583"
               id="path482" />
            <path
               d="m 181.0806,113.20377 q 0.24598,0.01 0.47749,-0.0434 0.23151,-0.053 0.40514,-0.15916 0.17846,-0.10129 0.28457,-0.25563 0.10611,-0.15434 0.10611,-0.35209 0,-0.20257 -0.0724,-0.32797 -0.0675,-0.1254 -0.15434,-0.23151 -0.0868,-0.10611 -0.15916,-0.22669 -0.0675,-0.12058 -0.0675,-0.32315 0,-0.10129 0.0386,-0.21222 0.0386,-0.11093 0.11575,-0.20257 0.082,-0.0916 0.20257,-0.14952 0.12541,-0.0579 0.29422,-0.0579 0.16881,0 0.32315,0.0723 0.15916,0.0675 0.27491,0.21222 0.12058,0.1447 0.18811,0.36174 0.0723,0.21704 0.0723,0.51125 0,0.40032 -0.14951,0.76688 -0.1447,0.37138 -0.43891,0.65594 -0.28939,0.28457 -0.72829,0.45338 -0.43408,0.16881 -1.01286,0.16881 z"
               style="font-style:normal;font-variant:normal;font-weight:normal;font-stretch:normal;font-size:9.87778px;font-family:Consolas;-inkscape-font-specification:Consolas;fill:#6c5353;stroke-width:0.264583"
               id="path484" />
            <path
               d="m 190.7944,114.19251 h -5.43085 v -0.69453 h 5.43085 z"
               style="font-style:normal;font-variant:normal;font-weight:normal;font-stretch:normal;font-size:9.87778px;font-family:Consolas;-inkscape-font-specification:Consolas;fill:#6c5353;stroke-width:0.264583"
               id="path486" />
            <path
               d="m 193.90532,114.19251 h -0.791 v -9.87778 h 0.791 z"
               style="font-style:normal;font-variant:normal;font-weight:normal;font-stretch:normal;font-size:9.87778px;font-family:Consolas;-inkscape-font-specification:Consolas;fill:#6c5353;stroke-width:0.264583"
               id="path488" />
            <path
               d="m 201.65609,114.19251 h -5.43085 v -0.69453 h 5.43085 z"
               style="font-style:normal;font-variant:normal;font-weight:normal;font-stretch:normal;font-size:9.87778px;font-family:Consolas;-inkscape-font-specification:Consolas;fill:#6c5353;stroke-width:0.264583"
               id="path490" />
            <path
               d="m 207.08695,114.19251 h -5.43085 v -0.69453 h 5.43085 z"
               style="font-style:normal;font-variant:normal;font-weight:normal;font-stretch:normal;font-size:9.87778px;font-family:Consolas;-inkscape-font-specification:Consolas;fill:#6c5353;stroke-width:0.264583"
               id="path492" />
            <path
               d="m 212.51779,114.19251 h -5.43085 v -0.69453 h 5.43085 z"
               style="font-style:normal;font-variant:normal;font-weight:normal;font-stretch:normal;font-size:9.87778px;font-family:Consolas;-inkscape-font-specification:Consolas;fill:#6c5353;stroke-width:0.264583"
               id="path494" />
            <path
               d="m 217.18176,105.39994 -3.30867,7.85206 h -0.80064 l 3.30867,-7.85206 z"
               style="font-style:normal;font-variant:normal;font-weight:normal;font-stretch:normal;font-size:9.87778px;font-family:Consolas;-inkscape-font-specification:Consolas;fill:#6c5353;stroke-width:0.264583"
               id="path496" />
            <path
               d="m 222.82966,113.252 h -0.80064 l -3.30867,-7.85206 h 0.80064 z"
               style="font-style:normal;font-variant:normal;font-weight:normal;font-stretch:normal;font-size:9.87778px;font-family:Consolas;-inkscape-font-specification:Consolas;fill:#6c5353;stroke-width:0.264583"
               id="path498" />
            <path
               d="m 228.81034,114.19251 h -5.43085 v -0.69453 h 5.43085 z"
               style="font-style:normal;font-variant:normal;font-weight:normal;font-stretch:normal;font-size:9.87778px;font-family:Consolas;-inkscape-font-specification:Consolas;fill:#6c5353;stroke-width:0.264583"
               id="path500" />
            <path
               d="m 234.24119,114.19251 h -5.43085 v -0.69453 h 5.43085 z"
               style="font-style:normal;font-variant:normal;font-weight:normal;font-stretch:normal;font-size:9.87778px;font-family:Consolas;-inkscape-font-specification:Consolas;fill:#6c5353;stroke-width:0.264583"
               id="path502" />
            <path
               d="m 239.67205,114.19251 h -5.43085 v -0.69453 h 5.43085 z"
               style="font-style:normal;font-variant:normal;font-weight:normal;font-stretch:normal;font-size:9.87778px;font-family:Consolas;-inkscape-font-specification:Consolas;fill:#6c5353;stroke-width:0.264583"
               id="path504" />
            <path
               d="m 242.78296,114.19251 h -0.79099 v -9.87778 h 0.79099 z"
               style="font-style:normal;font-variant:normal;font-weight:normal;font-stretch:normal;font-size:9.87778px;font-family:Consolas;-inkscape-font-specification:Consolas;fill:#6c5353;stroke-width:0.264583"
               id="path506" />
            <path
               d="m 249.9839,113.252 h -0.80064 l -3.30867,-7.85206 h 0.80064 z"
               style="font-style:normal;font-variant:normal;font-weight:normal;font-stretch:normal;font-size:9.87778px;font-family:Consolas;-inkscape-font-specification:Consolas;fill:#6c5353;stroke-width:0.264583"
               id="path508" />
            <path
               d="m 255.96459,114.19251 h -5.43085 v -0.69453 h 5.43085 z"
               style="font-style:normal;font-variant:normal;font-weight:normal;font-stretch:normal;font-size:9.87778px;font-family:Consolas;-inkscape-font-specification:Consolas;fill:#6c5353;stroke-width:0.264583"
               id="path510" />
            <path
               d="m 261.39543,114.19251 h -5.43085 v -0.69453 h 5.43085 z"
               style="font-style:normal;font-variant:normal;font-weight:normal;font-stretch:normal;font-size:9.87778px;font-family:Consolas;-inkscape-font-specification:Consolas;fill:#6c5353;stroke-width:0.264583"
               id="path512" />
            <path
               d="m 266.8263,114.19251 h -5.43085 v -0.69453 h 5.43085 z"
               style="font-style:normal;font-variant:normal;font-weight:normal;font-stretch:normal;font-size:9.87778px;font-family:Consolas;-inkscape-font-specification:Consolas;fill:#6c5353;stroke-width:0.264583"
               id="path514" />
            <path
               d="m 269.93722,114.19251 h -0.791 v -9.87778 h 0.791 z"
               style="font-style:normal;font-variant:normal;font-weight:normal;font-stretch:normal;font-size:9.87778px;font-family:Consolas;-inkscape-font-specification:Consolas;fill:#6c5353;stroke-width:0.264583"
               id="path516" />
            <path
               d="m 277.13815,113.252 h -0.80064 l -3.30867,-7.85206 h 0.80064 z"
               style="font-style:normal;font-variant:normal;font-weight:normal;font-stretch:normal;font-size:9.87778px;font-family:Consolas;-inkscape-font-specification:Consolas;fill:#6c5353;stroke-width:0.264583"
               id="path518" />
            <path
               d="m 283.11884,114.19251 h -5.43085 v -0.69453 h 5.43085 z"
               style="font-style:normal;font-variant:normal;font-weight:normal;font-stretch:normal;font-size:9.87778px;font-family:Consolas;-inkscape-font-specification:Consolas;fill:#6c5353;stroke-width:0.264583"
               id="path520" />
            <path
               d="m 288.54969,114.19251 h -5.43085 v -0.69453 h 5.43085 z"
               style="font-style:normal;font-variant:normal;font-weight:normal;font-stretch:normal;font-size:9.87778px;font-family:Consolas;-inkscape-font-specification:Consolas;fill:#6c5353;stroke-width:0.264583"
               id="path522" />
            <path
               d="m 289.69759,113.20377 q 0.24598,0.01 0.47749,-0.0434 0.23151,-0.053 0.40514,-0.15916 0.17846,-0.10129 0.28457,-0.25563 0.10611,-0.15434 0.10611,-0.35209 0,-0.20257 -0.0723,-0.32797 -0.0675,-0.1254 -0.15434,-0.23151 -0.0868,-0.10611 -0.15916,-0.22669 -0.0675,-0.12058 -0.0675,-0.32315 0,-0.10129 0.0386,-0.21222 0.0386,-0.11093 0.11575,-0.20257 0.082,-0.0916 0.20257,-0.14952 0.12541,-0.0579 0.29421,-0.0579 0.16881,0 0.32315,0.0723 0.15917,0.0675 0.27492,0.21222 0.12058,0.1447 0.18811,0.36174 0.0723,0.21704 0.0723,0.51125 0,0.40032 -0.14951,0.76688 -0.1447,0.37138 -0.43891,0.65594 -0.28939,0.28457 -0.72829,0.45338 -0.43409,0.16881 -1.01286,0.16881 z"
               style="font-style:normal;font-variant:normal;font-weight:normal;font-stretch:normal;font-size:9.87778px;font-family:Consolas;-inkscape-font-specification:Consolas;fill:#6c5353;stroke-width:0.264583"
               id="path524" />
            <path
               d="m 299.41138,114.19251 h -5.43085 v -0.69453 h 5.43085 z"
               style="font-style:normal;font-variant:normal;font-weight:normal;font-stretch:normal;font-size:9.87778px;font-family:Consolas;-inkscape-font-specification:Consolas;fill:#6c5353;stroke-width:0.264583"
               id="path526" />
            <path
               d="m 302.52231,114.19251 h -0.79099 v -9.87778 h 0.79099 z"
               style="font-style:normal;font-variant:normal;font-weight:normal;font-stretch:normal;font-size:9.87778px;font-family:Consolas;-inkscape-font-specification:Consolas;fill:#6c5353;stroke-width:0.264583"
               id="path528" />
          </g>
        </g>
      </g>
    </g>
  </g>
</svg>
